<svg xmlns="http://www.w3.org/2000/svg" width="112" height="40" viewBox="0 0 112 40">
    <g fill="none" fill-rule="evenodd">
        <path stroke="#FFF" stroke-width="1.5" d="M.75.75h110.5v38.5H.75z"/>
        <path fill="#FFF" d="M24.212 27.674H21L26.588 13h4.268l5.61 14.674h-3.388L31.78 24h-6.248l-1.32 3.674zm4.466-12.606l-2.486 6.71h4.906l-2.42-6.71zm13.578.11v4.884H43.4c1.76 0 3.476-.33 3.476-2.53 0-1.738-1.232-2.354-3.278-2.354h-1.342zm.022 12.496h-3.19V13h5.192c3.102 0 5.874 1.188 5.874 4.51 0 3.41-2.772 4.752-5.852 4.752h-2.024v5.412zm20.904 0h-9.768V13h9.57v2.244h-6.38v3.85h6.094v2.222h-6.094v4.114h6.578v2.244zm13.336 0H66.75V13h9.57v2.244h-6.38v3.85h6.094v2.222H69.94v4.114h6.578v2.244zm6.736-12.496v4.246h1.474c1.496 0 3.058-.506 3.058-2.244 0-1.694-1.386-2.002-2.97-2.002h-1.562zm.022 12.496h-3.19V13h5.808c2.53 0 5.17.924 5.17 3.85 0 2.156-1.518 3.256-3.388 3.608 1.254.286 1.782.968 2.398 2.486l1.87 4.73h-3.52L87.104 24c-.66-1.782-1.034-2.398-2.64-2.398h-1.188v6.072z"/>
    </g>
</svg>
