<?xml version="1.0" encoding="UTF-8"?>
<svg width="105px" height="30px" viewBox="0 0 105 30" version="1.1" xmlns="http://www.w3.org/2000/svg" xmlns:xlink="http://www.w3.org/1999/xlink">
    <!-- Generator: Sketch 53.2 (72643) - https://sketchapp.com -->
    <title>logo gradient copy 2</title>
    <desc>Created with Sketch.</desc>
    <defs>
        <linearGradient x1="36.3020605%" y1="34.8498016%" x2="5.54682722%" y2="34.8498016%" id="linearGradient-1">
            <stop stop-color="#F3F3F3" offset="0%"></stop>
            <stop stop-color="#F3F3F3" stop-opacity="0.721809441" offset="100%"></stop>
        </linearGradient>
        <path d="M0.00949253728,10.4397032 C0.00321497824,10.3772407 0,10.3138722 0,10.24975 C0,10.247 0.000499987217,10.24375 0.000249993609,10.24 C0.000283367223,10.2049218 0.000497367653,10.169886 0.000891114972,10.1348932 C0.000297658338,10.0899996 -2.84217094e-14,10.0450346 -2.84217094e-14,10 C-2.84217094e-14,4.47725 4.47688554,0 9.99974435,0 C15.5226032,0 19.9994887,4.47725 19.9994887,10 L19.9994887,18.125 C19.9994887,19.1605 19.1602602,20 18.1245366,20 C17.0888131,20 16.2495846,19.1605 16.2495846,18.125 L16.2495846,17.806813 C14.5376514,19.1791505 12.3645865,20 9.99974435,20 C4.62421558,20 0.239598806,15.7586746 0.00949253728,10.4397032 Z M16.2483599,10.1249927 C16.1817949,6.73045194 13.4101411,3.99950605 9.99974435,4 C6.58976428,3.99975302 3.81782408,6.73058171 3.75113333,10.1252236 C3.81782249,13.519413 6.58967008,16.25 9.99974435,16.25 C13.409896,16.25 16.1817919,13.5192892 16.2483599,10.1249927 Z M23.2551071,28.125 L23.2551071,10 C23.2551071,4.47725 27.7319926,0 33.2548514,0 C38.7777102,0 43.2545958,4.47725 43.2545958,10 C43.2545958,15.523 38.7777102,20 33.2548514,20 C30.8900093,20 28.7169444,19.1791505 27.0050112,17.806813 L27.0050112,28.125 C27.0050112,29.16075 26.1657826,30 25.1300591,30 C24.0943356,30 23.2551071,29.16075 23.2551071,28.125 Z M33.2548514,3.75 C29.8029397,3.75 27.0050112,6.548 27.0050112,10 C27.0050112,13.452 29.8029397,16.25 33.2548514,16.25 C36.7067632,16.25 39.5046916,13.452 39.5046916,10 C39.5046916,6.548 36.7067632,3.75 33.2548514,3.75 Z M89.9536996,9.59653798 C89.95384,9.60600017 89.9539104,9.61547934 89.9539104,9.624975 C89.9539104,10.6605089 89.1164383,11.499975 88.0833641,11.499975 L86.0778245,11.499975 L73.654718,11.499975 C74.2819228,14.3598766 76.8247644,16.5 79.8662713,16.5 C81.7915719,16.5 83.5170572,15.6424523 84.6833172,14.2876227 L84.6868095,14.2903618 C85.025771,13.8120489 85.5829366,13.499975 86.2128178,13.499975 C87.245892,13.499975 88.0833641,14.3394411 88.0833641,15.374975 C88.0833641,15.8426656 87.9125361,16.2703622 87.6300132,16.5987909 L87.6318691,16.6002465 C85.7790175,18.8304733 82.9880247,20.25 79.8662713,20.25 C74.2876706,20.25 69.7653212,15.7168831 69.7653212,10.125 C69.7653212,4.53311691 74.2876706,0 79.8662713,0 C85.2680383,0 89.679456,4.25028506 89.9536996,9.59653798 Z M85.7701087,7.749975 C84.8305315,5.40541242 82.5412634,3.75 79.8662713,3.75 C77.1912792,3.75 74.902011,5.40541242 73.9624338,7.749975 L85.7701087,7.749975 Z M66.6985926,9.59653798 C66.6987329,9.60600017 66.6988033,9.61547934 66.6988033,9.624975 C66.6988033,10.6605089 65.8613312,11.499975 64.8282571,11.499975 L62.8227175,11.499975 L50.399611,11.499975 C51.0268157,14.3598766 53.5696573,16.5 56.6111642,16.5 C58.5364648,16.5 60.2619502,15.6424523 61.4282101,14.2876227 L61.4317024,14.2903618 C61.7706639,13.8120489 62.3278295,13.499975 62.9577107,13.499975 C63.9907849,13.499975 64.828257,14.3394411 64.828257,15.374975 C64.828257,15.8426656 64.6574291,16.2703622 64.3749061,16.5987909 L64.376762,16.6002465 C62.5239104,18.8304733 59.7329177,20.25 56.6111642,20.25 C51.0325635,20.25 46.5102141,15.7168831 46.5102141,10.125 C46.5102141,4.53311691 51.0325635,0 56.6111642,0 C62.0129312,0 66.4243489,4.25028506 66.6985926,9.59653798 Z M62.5150017,7.749975 C61.5754245,5.40541242 59.2861563,3.75 56.6111642,3.75 C53.9361721,3.75 51.646904,5.40541242 50.7073268,7.749975 L62.5150017,7.749975 Z M93.0359985,9.75 C93.1686731,4.34276535 97.5933985,0 103.032679,0 L103.032679,0.00223413739 C103.063281,0.0007504412 103.094077,0 103.125048,0 C104.160771,0 105,0.83925 105,1.875 C105,2.91075 104.160771,3.75 103.125048,3.75 C103.094077,3.75 103.063281,3.74924956 103.032679,3.74776586 L103.032679,3.75 C99.5807672,3.75 96.7828387,6.548 96.7828387,10 L96.7828137,18.125 L96.7703323,18.125 C96.7703323,19.16075 95.9311038,20 94.8953803,20 C93.8596568,20 93.0204282,19.16075 93.0204282,18.125 C93.0204282,18.0514029 93.0246655,17.9787979 93.0329096,17.9074157 L93.0329096,9.75 L93.0359985,9.75 Z" id="path-2"></path>
    </defs>
    <g id="Page-1" stroke="none" stroke-width="1" fill="none" fill-rule="evenodd">
        <g id="Logo-design-" transform="translate(-149.000000, -3053.000000)">
            <g id="logo-gradient-copy-2" transform="translate(149.000000, 3053.000000)">
                <mask id="mask-3" fill="white">
                    <use xlink:href="#path-2"></use>
                </mask>
                <use id="Combined-Shape-Copy-19" fill="url(#linearGradient-1)" fill-rule="nonzero" xlink:href="#path-2"></use>
            </g>
        </g>
    </g>
</svg>